<svg xmlns="http://www.w3.org/2000/svg" viewBox="296 130 408 554" width="408" height="554">
<title>Golden Blocks Mission — Gold Bars, blocks only (mono-white)</title>
<path d="M316 150H488V395H316ZM330.4 164.4H473.59999999999997V380.6H330.4ZM336 170H468V375H336Z" fill="#FFFFFF" fill-rule="evenodd"/><path d="M512 150H684V395H512ZM526.4 164.4H669.5999999999999V380.6H526.4ZM532 170H664V375H532Z" fill="#FFFFFF" fill-rule="evenodd"/><path d="M316 419H488V664H316ZM330.4 433.4H473.59999999999997V649.5999999999999H330.4ZM336 439H468V644H336Z" fill="#FFFFFF" fill-rule="evenodd"/><path d="M512 419H684V664H512ZM526.4 433.4H669.5999999999999V649.5999999999999H526.4ZM532 439H664V644H532Z" fill="#FFFFFF" fill-rule="evenodd"/>
</svg>
